<svg width="26" height="17" viewBox="0 0 26 17" fill="none" xmlns="http://www.w3.org/2000/svg">
<path d="M24.2437 13.4601L24.2524 13.4472L24.2593 13.4332L24.5666 12.8186C24.6861 12.6671 24.6608 12.4755 24.5849 12.3491C24.4994 12.2066 24.3375 12.1072 24.1429 12.1072H21.4643C21.4613 12.1072 21.4579 12.1071 21.4541 12.1071C21.4135 12.1066 21.3281 12.1056 21.2453 12.1469C21.2025 12.1683 21.1697 12.1955 21.1464 12.2165C21.1246 12.2361 21.1004 12.2603 21.0766 12.2842L21.0732 12.2875C20.5893 12.7714 20.0124 12.9643 19.4286 12.9643C18.2704 12.9643 17.3465 12.2317 16.9724 11.1071H24.4643C24.6818 11.1071 24.8825 11.0335 25.0295 10.8866C25.1764 10.7397 25.25 10.539 25.25 10.3214V10.1072C25.25 6.76413 22.6829 4.07144 19.4286 4.07144C16.1742 4.07144 13.6071 6.76413 13.6071 10.1072C13.6071 13.4502 16.1742 16.1429 19.4286 16.1429C21.3405 16.1429 23.1299 15.1309 24.2437 13.4601ZM11.511 7.15384C11.8864 6.51184 12.0714 5.77961 12.0714 4.96428C12.0714 2.56342 10.0178 0.75 7.75 0.75H1.53571C1.31819 0.75 1.11749 0.8236 0.970545 0.970545C0.8236 1.11749 0.75 1.31819 0.75 1.53571V15.1429C0.75 15.3604 0.8236 15.5611 0.970545 15.708C1.11749 15.855 1.31819 15.9286 1.53571 15.9286H8.39286C11.0948 15.9286 13.3571 13.7883 13.3571 11.0714C13.3571 9.46951 12.6465 8.06545 11.511 7.15384ZM3.92857 4.03571H7.75C8.34866 4.03571 8.78571 4.55299 8.78571 5.07143C8.78571 5.67009 8.26844 6.10714 7.75 6.10714H3.92857V4.03571ZM8.5 12.75H3.92857V9.39286H8.5C9.43336 9.39286 10.1786 10.1381 10.1786 11.0714C10.1786 12.0048 9.43336 12.75 8.5 12.75ZM19.4286 7.35715C20.1448 7.35715 20.8042 7.6858 21.2921 8.25001H17.5275C17.9707 7.69696 18.6965 7.35715 19.4286 7.35715ZM16.75 3.92859H21.6786C22.1381 3.92859 22.3571 3.60237 22.3571 3.35716V2.07144C22.3571 1.88299 22.2654 1.71547 22.15 1.60002C22.0345 1.48458 21.867 1.39287 21.6786 1.39287H16.75C16.5616 1.39287 16.394 1.48458 16.2786 1.60002C16.1631 1.71547 16.0714 1.88299 16.0714 2.07144V3.25001C16.0714 3.43847 16.1631 3.60599 16.2786 3.72143C16.394 3.83688 16.5616 3.92859 16.75 3.92859Z" stroke="white" stroke-width="0.5"/>
</svg>
