<svg width="26" height="26" viewBox="0 0 26 26" fill="none" xmlns="http://www.w3.org/2000/svg">
<path d="M19 1H7C3.68629 1 1 3.68629 1 7V19C1 22.3137 3.68629 25 7 25H19C22.3137 25 25 22.3137 25 19V7C25 3.68629 22.3137 1 19 1Z" stroke="white" stroke-width="0.5" stroke-linecap="round" stroke-linejoin="round"/>
<path d="M17.4513 12.3399C17.5902 13.2762 17.4302 14.2324 16.9943 15.0726C16.5584 15.9127 15.8686 16.594 15.0232 17.0196C14.1777 17.4451 13.2196 17.5932 12.2851 17.4428C11.3506 17.2925 10.4873 16.8513 9.81802 16.182C9.14874 15.5127 8.70753 14.6494 8.55716 13.7149C8.40678 12.7804 8.5549 11.8223 8.98045 10.9768C9.40599 10.1314 10.0873 9.44164 10.9274 9.0057C11.7676 8.56976 12.7238 8.40984 13.6601 8.54868C14.6151 8.6903 15.4993 9.13533 16.182 9.81802C16.8647 10.5007 17.3097 11.3849 17.4513 12.3399Z" stroke="white" stroke-width="0.5" stroke-linecap="round" stroke-linejoin="round"/>
</svg>
