<svg width="24" height="24" viewBox="0 0 24 24" fill="none" xmlns="http://www.w3.org/2000/svg">
<path d="M8.82772 14.9223V15.1723H9.07772H11.8122V23.75H3.97927C2.00335 23.75 0.25 21.9966 0.25 20.0207V3.97927C0.25 2.00335 2.00335 0.25 3.97927 0.25H20.0207C21.9966 0.25 23.75 2.00335 23.75 3.97927V20.0207C23.75 21.9966 21.9966 23.75 20.0207 23.75H16.0427V15.1723H19.772H20.022V14.9223V10.943V10.693H19.772H16.0427V9.32642C16.0427 8.64698 16.3658 8.45724 16.5389 8.45724H19.772H20.022V8.20724V4.22797V3.97797H19.772H16.5389C13.8814 3.97797 11.8122 6.48739 11.8122 9.32642V10.693H9.07772H8.82772V10.943V14.9223Z" stroke="white" stroke-width="0.5"/>
</svg>
