<svg width="83" height="37" viewBox="0 0 83 37" fill="none" xmlns="http://www.w3.org/2000/svg">
<path d="M70.14 9.52004L66.81 14C65.51 15.72 64.2 17.42 62.92 19.16C62.6129 19.5761 62.3671 20.0341 62.19 20.52C62.0986 20.7482 62.0584 20.9935 62.0722 21.2389C62.086 21.4842 62.1534 21.7236 62.2697 21.94C62.3861 22.1565 62.5485 22.3448 62.7455 22.4916C62.9425 22.6385 63.1694 22.7404 63.41 22.79C63.7637 22.8765 64.1259 22.9235 64.49 22.93C66.58 22.93 68.67 22.93 70.76 22.93C71.2713 22.9996 71.7919 22.9195 72.2586 22.6994C72.7254 22.4794 73.1183 22.1288 73.39 21.69C73.659 21.1673 73.7996 20.5879 73.8 20C73.8 15.8734 73.8 11.7434 73.8 7.61004C73.8399 7.22203 73.7922 6.83003 73.6606 6.46286C73.529 6.09568 73.3168 5.76267 73.0396 5.48831C72.7623 5.21395 72.4271 5.00522 72.0586 4.87745C71.6901 4.74969 71.2976 4.70615 70.91 4.75004H59.25C59.1997 3.94416 59.1997 3.13592 59.25 2.33004C59.3382 1.79586 59.6145 1.31081 60.0289 0.962402C60.4433 0.613997 60.9686 0.425185 61.51 0.430037C65.31 0.430037 69.11 0.360037 72.9 0.430037C74.8101 0.467943 76.6764 1.00953 78.31 2.00004C79.5241 2.7092 80.541 3.71144 81.2677 4.91509C81.9945 6.11874 82.4078 7.48538 82.47 8.89004C82.6863 12.2199 82.6863 15.5602 82.47 18.89C82.3114 20.9563 81.4311 22.9011 79.9832 24.3837C78.5353 25.8664 76.612 26.7925 74.55 27C70.64 27.52 66.7 27.18 62.78 27.26C62.2593 27.2356 61.7412 27.1721 61.23 27.07C59.5571 26.7671 58.0682 25.8235 57.08 24.44C56.08 23.19 55.08 21.89 54.15 20.6C53.5883 20.0013 53.2756 19.2111 53.2756 18.39C53.2756 17.569 53.5883 16.7788 54.15 16.18C55.7 14.03 57.3 11.92 58.9 9.81004C59.0731 9.6116 59.3174 9.48943 59.58 9.47004C63.05 9.47004 66.53 9.47004 70.01 9.47004C70 9.44004 70 9.47004 70.14 9.52004Z" fill="#666666"/>
<path d="M4.53001 36.1901V13.8101H1.40662e-05C-0.0128382 12.9609 0.0372993 12.1119 0.150014 11.2701C0.248574 10.7372 0.536946 10.2582 0.961691 9.9217C1.38644 9.58522 1.91876 9.4141 2.46001 9.44008C9.87001 9.44008 17.28 9.44008 24.68 9.44008C25.8106 9.45569 26.9205 9.74492 27.9149 10.283C28.9093 10.8212 29.7586 11.5922 30.39 12.5301C31.31 13.7301 32.23 14.9501 33.12 16.1801C33.6434 16.7333 33.9424 17.4613 33.959 18.2227C33.9757 18.9841 33.7087 19.7245 33.21 20.3001C31.6 22.5501 29.92 24.7501 28.21 26.9601C28.1398 27.0406 28.0539 27.1061 27.9577 27.1525C27.8614 27.1989 27.7568 27.2253 27.65 27.2301C24.13 27.2301 20.65 27.2301 16.95 27.2301L19.1 24.3501L24.35 17.3501C24.35 17.3001 24.44 17.2501 24.48 17.1901C24.7739 16.871 24.9698 16.4742 25.0443 16.0468C25.1188 15.6195 25.0687 15.1797 24.9 14.7801C24.6705 14.4124 24.337 14.1211 23.9418 13.9431C23.5466 13.7651 23.1075 13.7084 22.68 13.7801H14.06C13.86 13.7801 13.66 13.7801 13.4 13.7801V36.1901H4.53001Z" fill="#666666"/>
<path d="M55.74 9.43018L51.32 15.3002C48.44 19.1602 45.54 23.0135 42.62 26.8602C42.4419 27.0745 42.1871 27.2108 41.91 27.2402C38.48 27.2402 35.05 27.2402 31.62 27.2402C31.5257 27.2299 31.4321 27.2132 31.34 27.1902L33.79 23.9002C37.2967 19.2335 40.81 14.5668 44.33 9.90018C44.4896 9.66557 44.7329 9.50097 45.01 9.44018C48.53 9.43018 52.05 9.43018 55.74 9.43018Z" fill="#666666"/>
</svg>
