<svg width="118" height="16" viewBox="0 0 118 16" fill="none" xmlns="http://www.w3.org/2000/svg">
<g clip-path="url(#clip0)">
<path d="M52.9653 1.01156C53.8357 1.39567 54.5631 2.00788 55.0559 2.77114C55.5713 3.60222 55.8299 4.54701 55.8035 5.50338C55.827 6.44982 55.5684 7.38413 55.0559 8.20522C54.5637 8.96936 53.8362 9.58226 52.9653 9.96649C51.9889 10.3866 50.9202 10.594 49.8424 10.5727H40.6866V14.6255H37.8704V0.405332H49.8405C50.919 0.383774 51.9883 0.591229 52.9653 1.01156ZM48.7181 8.27277C49.3779 8.28054 50.037 8.23306 50.6874 8.13093C51.2471 8.03166 51.7568 7.76865 52.1405 7.38116C52.5593 6.97814 52.7682 6.35165 52.7669 5.50169C52.7657 4.65173 52.5569 4.0213 52.1405 3.6104C51.7596 3.21782 51.2491 2.95088 50.6874 2.8505C50.0368 2.74986 49.3778 2.70295 48.7181 2.71034H40.6866V8.27277H48.7181Z" fill="white"/>
<path d="M61.8235 0.405273V12.3187H73.7073V14.6254H59.011V0.405273H61.8235Z" fill="white"/>
<path d="M98.0792 14.6254H94.8938L92.9796 11.5504H81.7296L79.8154 14.6254H76.6098L85.5653 0.405273H89.1292L98.0792 14.6254ZM87.3417 2.54986L83.1165 9.32475H91.5669L87.3417 2.54986Z" fill="white"/>
<path d="M107.239 7.72728L114.28 0.405273H117.998L108.734 9.95292V14.6254H105.721V9.95292L96.4571 0.405273H100.175L107.239 7.72728Z" fill="white"/>
<path d="M32.4659 7.53307C32.4659 7.53307 32.4659 7.52125 32.4659 7.5145C32.4659 7.50774 32.4659 7.49592 32.4659 7.48579C32.47 7.45608 32.47 7.42601 32.4659 7.39629C32.4453 7.17435 32.366 6.96037 32.2351 6.77293C32.1042 6.58549 31.9255 6.43023 31.7145 6.32062L27.7576 4.05782C27.6542 3.97894 27.5399 3.91307 27.4177 3.86194C27.2262 3.78174 27.0182 3.74028 26.8078 3.74036C26.4122 3.74036 26.0328 3.88482 25.753 4.14197C25.4733 4.39911 25.3161 4.74788 25.3161 5.11154V9.91745C25.3153 10.1865 25.4008 10.4499 25.5618 10.6746C25.7228 10.8993 25.9522 11.0754 26.2215 11.181C26.4908 11.2866 26.7879 11.3169 27.0758 11.2681C27.3636 11.2194 27.6295 11.0938 27.8402 10.907L31.7182 8.71175C31.9316 8.60043 32.112 8.44254 32.2433 8.252C32.3747 8.06146 32.453 7.84414 32.4714 7.61919C32.4733 7.59039 32.4714 7.56148 32.4659 7.53307Z" fill="#00B9D2"/>
<path d="M12.9125 8.02817L12.9235 8.01804L12.8721 7.96906L11.0681 9.62732L13.7961 12.1603C12.7845 12.5329 11.5084 12.7192 9.96774 12.7192C5.34576 12.7192 3.03478 10.9794 3.03478 7.49962C3.03478 5.70627 3.62569 4.39193 4.80751 3.55661C5.98934 2.72129 7.70941 2.30307 9.96774 2.30194C14.5885 2.30194 16.8989 4.0345 16.8989 7.49962C16.8981 7.77721 16.8809 8.05456 16.8474 8.33044L19.2999 10.5932C19.7225 9.60884 19.931 8.55779 19.9134 7.49962C19.9134 5.15352 19.077 3.31626 17.4041 1.98785C15.7311 0.659444 13.2524 -0.00476074 9.96774 -0.00476074C6.66108 -0.00476074 4.17435 0.659444 2.50755 1.98785C0.840748 3.31626 0.00489876 5.15464 0 7.503C0 9.85023 0.835849 11.6909 2.50755 13.0249C4.17925 14.3589 6.66598 15.0265 9.96774 15.0276C12.2946 15.0276 14.2382 14.677 15.7985 13.9756L17.9772 16.002L19.7683 14.3556L12.9125 8.02817Z" fill="white"/>
</g>
<defs>
<clipPath id="clip0">
<rect width="118" height="16" fill="white"/>
</clipPath>
</defs>
</svg>
